<?xml version="1.0" encoding="UTF-8"?>
<svg width="500px" height="500px" viewBox="0 0 500 500" version="1.1" xmlns="http://www.w3.org/2000/svg" xmlns:xlink="http://www.w3.org/1999/xlink">
    <!-- Generator: Sketch 52.1 (67048) - http://www.bohemiancoding.com/sketch -->
    <title>Forest Network</title>
    <desc>Created with Sketch.</desc>
    <g id="Forest-Network" stroke="none" stroke-width="1" fill="none" fill-rule="evenodd">
        <g id="Group" transform="translate(99.000000, 57.000000)" fill="#000000">
            <polygon id="Path-2" points="62.0382656 387 62.0382656 353.773982 0 353.773982 36.6208536 248.581037 10.3267293 248.581037 45.7140269 144.665232 21.2312917 144.665232 71.1024567 0 121.913733 144.665232 98.1809125 144.665232 133.508434 248.581037 106.969772 248.581037 144 353.773982 82.0142647 353.773982 82.0142647 387"></polygon>
            <polygon id="Path-2-Copy" points="221.038266 387 221.038266 353.773982 159 353.773982 195.620854 248.581037 169.326729 248.581037 204.714027 144.665232 180.231292 144.665232 230.102457 0 280.913733 144.665232 257.180912 144.665232 292.508434 248.581037 265.969772 248.581037 303 353.773982 241.014265 353.773982 241.014265 387"></polygon>
        </g>
    </g>
</svg>